<svg width="300" height="20" viewBox="0 0 300 20" fill="none" xmlns="http://www.w3.org/2000/svg">
<path d="M9.99991 2.24158L14.7166 6.95824C15.6494 7.89042 16.2847 9.0783 16.5423 10.3716C16.7999 11.6649 16.6681 13.0056 16.1637 14.224C15.6592 15.4425 14.8048 16.4839 13.7083 17.2167C12.6119 17.9494 11.3228 18.3405 10.0041 18.3405C8.68534 18.3405 7.39624 17.9494 6.29982 17.2167C5.20339 16.4839 4.34891 15.4425 3.84446 14.224C3.34 13.0056 3.20823 11.6649 3.46582 10.3716C3.72341 9.0783 4.35878 7.89042 5.29157 6.95824L9.99991 2.24158Z" stroke="white" stroke-width="1.66667" stroke-linecap="round" stroke-linejoin="round"/>
<g clip-path="url(#clip0_69_247)">
<path d="M50.0003 8.33337H48.9503C48.6385 7.12587 47.9943 6.03003 47.0908 5.17037C46.1873 4.31071 45.0608 3.7217 43.8394 3.47027C42.6179 3.21884 41.3503 3.31507 40.1808 3.74803C39.0113 4.18099 37.9866 4.93332 37.2233 5.91953C36.46 6.90573 35.9886 8.08627 35.8627 9.327C35.7368 10.5677 35.9614 11.8189 36.5111 12.9383C37.0607 14.0578 37.9134 15.0006 38.9721 15.6597C40.0308 16.3187 41.2532 16.6676 42.5003 16.6667H50.0003C51.1053 16.6667 52.1651 16.2277 52.9465 15.4463C53.7279 14.6649 54.1669 13.6051 54.1669 12.5C54.1669 11.395 53.7279 10.3352 52.9465 9.55376C52.1651 8.77236 51.1053 8.33337 50.0003 8.33337Z" stroke="white" stroke-width="1.66667" stroke-linecap="round" stroke-linejoin="round"/>
</g>
<g clip-path="url(#clip1_69_247)">
<path d="M85.8334 14.0834C86.8461 13.8778 87.7462 13.3033 88.359 12.4713C88.9719 11.6394 89.2537 10.6094 89.1499 9.58134C89.046 8.55328 88.5639 7.60048 87.7971 6.9079C87.0302 6.21532 86.0334 5.83238 85.0001 5.83342H83.9501C83.674 4.76452 83.1368 3.78091 82.3867 2.97091C81.6366 2.16091 80.697 1.54986 79.6525 1.19264C78.6079 0.835417 77.4909 0.743197 76.4019 0.92426C75.3129 1.10532 74.2858 1.554 73.413 2.23001C72.5402 2.90602 71.849 3.7882 71.4013 4.79735C70.9536 5.80649 70.7636 6.91101 70.8482 8.01175C70.9329 9.11248 71.2895 10.175 71.8862 11.1038C72.4829 12.0327 73.3009 12.7988 74.2668 13.3334" stroke="white" stroke-width="1.66667" stroke-linecap="round" stroke-linejoin="round"/>
<path d="M80.8333 9.16663L77.5 14.1666H82.5L79.1667 19.1666" stroke="white" stroke-width="1.66667" stroke-linecap="round" stroke-linejoin="round"/>
</g>
<g clip-path="url(#clip2_69_247)">
<path d="M121.667 14.65C122.543 14.2663 123.26 13.5929 123.699 12.7429C124.137 11.8929 124.269 10.918 124.074 9.98178C123.879 9.0456 123.367 8.20514 122.625 7.60149C121.883 6.99785 120.957 6.66776 120 6.66663H118.95C118.686 5.64373 118.183 4.69825 117.481 3.90813C116.78 3.11801 115.901 2.50586 114.917 2.12215C113.932 1.73844 112.871 1.59415 111.82 1.70117C110.769 1.80819 109.758 2.16346 108.872 2.7377C107.985 3.31194 107.247 4.0887 106.72 5.00396C106.192 5.91922 105.889 6.94678 105.837 8.00192C105.784 9.05707 105.983 10.1096 106.417 11.0728C106.851 12.0359 107.508 12.8821 108.334 13.5416" stroke="white" stroke-width="1.66667" stroke-linecap="round" stroke-linejoin="round"/>
<path d="M111.667 13.3334H111.675" stroke="white" stroke-width="1.66667" stroke-linecap="round" stroke-linejoin="round"/>
<path d="M111.667 16.6666H111.675" stroke="white" stroke-width="1.66667" stroke-linecap="round" stroke-linejoin="round"/>
<path d="M115 15H115.008" stroke="white" stroke-width="1.66667" stroke-linecap="round" stroke-linejoin="round"/>
<path d="M115 18.3334H115.008" stroke="white" stroke-width="1.66667" stroke-linecap="round" stroke-linejoin="round"/>
<path d="M118.333 13.3334H118.342" stroke="white" stroke-width="1.66667" stroke-linecap="round" stroke-linejoin="round"/>
<path d="M118.333 16.6666H118.342" stroke="white" stroke-width="1.66667" stroke-linecap="round" stroke-linejoin="round"/>
</g>
<g clip-path="url(#clip3_69_247)">
<path d="M158.842 14.125C159.11 13.4911 159.218 12.8006 159.154 12.1151C159.09 11.4296 158.858 10.7706 158.477 10.1969C158.097 9.62317 157.58 9.1527 156.973 8.82752C156.366 8.50233 155.689 8.33256 155 8.33337H153.95C153.61 6.99378 152.862 5.79303 151.809 4.89725C150.757 4.00148 149.452 3.45498 148.075 3.33337M144.167 4.16671C142.865 4.88641 141.842 6.02069 141.259 7.38913C140.676 8.75756 140.568 10.2816 140.951 11.7187C141.334 13.1558 142.187 14.4234 143.374 15.32C144.561 16.2166 146.013 16.6907 147.5 16.6667H155C155.483 16.6661 155.963 16.5815 156.417 16.4167" stroke="white" stroke-width="1.66667" stroke-linecap="round" stroke-linejoin="round"/>
<path d="M140.833 0.833374L159.167 19.1667" stroke="white" stroke-width="1.66667" stroke-linecap="round" stroke-linejoin="round"/>
</g>
<g clip-path="url(#clip4_69_247)">
<path d="M181.667 15.8334V17.5" stroke="white" stroke-width="1.66667" stroke-linecap="round" stroke-linejoin="round"/>
<path d="M181.667 10.8334V12.5" stroke="white" stroke-width="1.66667" stroke-linecap="round" stroke-linejoin="round"/>
<path d="M188.333 15.8334V17.5" stroke="white" stroke-width="1.66667" stroke-linecap="round" stroke-linejoin="round"/>
<path d="M188.333 10.8334V12.5" stroke="white" stroke-width="1.66667" stroke-linecap="round" stroke-linejoin="round"/>
<path d="M185 17.5V19.1667" stroke="white" stroke-width="1.66667" stroke-linecap="round" stroke-linejoin="round"/>
<path d="M185 12.5V14.1667" stroke="white" stroke-width="1.66667" stroke-linecap="round" stroke-linejoin="round"/>
<path d="M191.667 13.8166C192.543 13.4329 193.26 12.7596 193.699 11.9095C194.137 11.0595 194.269 10.0846 194.074 9.14841C193.879 8.21222 193.367 7.37177 192.625 6.76812C191.883 6.16447 190.957 5.83438 190 5.83326H188.95C188.686 4.81036 188.183 3.86488 187.481 3.07476C186.78 2.28463 185.901 1.67249 184.917 1.28878C183.932 0.905063 182.871 0.760771 181.82 0.867794C180.769 0.974816 179.758 1.33009 178.872 1.90433C177.985 2.47856 177.247 3.25533 176.72 4.17059C176.192 5.08585 175.889 6.1134 175.837 7.16855C175.784 8.2237 175.983 9.27623 176.417 10.2394C176.851 11.2025 177.508 12.0488 178.334 12.7083" stroke="white" stroke-width="1.66667" stroke-linecap="round" stroke-linejoin="round"/>
</g>
<g clip-path="url(#clip5_69_247)">
<path d="M223.333 10.8334V17.5" stroke="white" stroke-width="1.66667" stroke-linecap="round" stroke-linejoin="round"/>
<path d="M216.667 10.8334V17.5" stroke="white" stroke-width="1.66667" stroke-linecap="round" stroke-linejoin="round"/>
<path d="M220 12.5V19.1667" stroke="white" stroke-width="1.66667" stroke-linecap="round" stroke-linejoin="round"/>
<path d="M226.667 13.8166C227.543 13.4329 228.26 12.7596 228.699 11.9095C229.137 11.0595 229.269 10.0846 229.074 9.14841C228.879 8.21222 228.367 7.37177 227.625 6.76812C226.883 6.16447 225.957 5.83438 225 5.83326H223.95C223.686 4.81036 223.183 3.86488 222.481 3.07476C221.78 2.28463 220.901 1.67249 219.917 1.28878C218.932 0.905063 217.871 0.760771 216.82 0.867794C215.769 0.974816 214.758 1.33009 213.872 1.90433C212.985 2.47856 212.247 3.25533 211.72 4.17059C211.192 5.08585 210.889 6.1134 210.837 7.16855C210.784 8.2237 210.983 9.27623 211.417 10.2394C211.851 11.2025 212.508 12.0488 213.334 12.7083" stroke="white" stroke-width="1.66667" stroke-linecap="round" stroke-linejoin="round"/>
</g>
<g clip-path="url(#clip6_69_247)">
<path d="M260 8.33337H258.95C258.638 7.12587 257.994 6.03003 257.091 5.17037C256.187 4.31071 255.061 3.7217 253.839 3.47027C252.618 3.21884 251.35 3.31507 250.181 3.74803C249.011 4.18099 247.987 4.93332 247.223 5.91953C246.46 6.90573 245.989 8.08627 245.863 9.327C245.737 10.5677 245.961 11.8189 246.511 12.9383C247.061 14.0578 247.913 15.0006 248.972 15.6597C250.031 16.3187 251.253 16.6676 252.5 16.6667H260C261.105 16.6667 262.165 16.2277 262.947 15.4463C263.728 14.6649 264.167 13.6051 264.167 12.5C264.167 11.395 263.728 10.3352 262.947 9.55376C262.165 8.77236 261.105 8.33337 260 8.33337Z" stroke="white" stroke-width="1.66667" stroke-linecap="round" stroke-linejoin="round"/>
</g>
<path d="M290 2.24158L294.717 6.95824C295.649 7.89042 296.285 9.0783 296.542 10.3716C296.8 11.6649 296.668 13.0056 296.164 14.224C295.659 15.4425 294.805 16.4839 293.708 17.2167C292.612 17.9494 291.323 18.3405 290.004 18.3405C288.685 18.3405 287.396 17.9494 286.3 17.2167C285.203 16.4839 284.349 15.4425 283.844 14.224C283.34 13.0056 283.208 11.6649 283.466 10.3716C283.723 9.0783 284.359 7.89042 285.292 6.95824L290 2.24158Z" stroke="white" stroke-width="1.66667" stroke-linecap="round" stroke-linejoin="round"/>
<defs>
<clipPath id="clip0_69_247">
<rect width="20" height="20" fill="white" transform="translate(35)"/>
</clipPath>
<clipPath id="clip1_69_247">
<rect width="20" height="20" fill="white" transform="translate(70)"/>
</clipPath>
<clipPath id="clip2_69_247">
<rect width="20" height="20" fill="white" transform="translate(105)"/>
</clipPath>
<clipPath id="clip3_69_247">
<rect width="20" height="20" fill="white" transform="translate(140)"/>
</clipPath>
<clipPath id="clip4_69_247">
<rect width="20" height="20" fill="white" transform="translate(175)"/>
</clipPath>
<clipPath id="clip5_69_247">
<rect width="20" height="20" fill="white" transform="translate(210)"/>
</clipPath>
<clipPath id="clip6_69_247">
<rect width="20" height="20" fill="white" transform="translate(245)"/>
</clipPath>
</defs>
</svg>
